<?xml version="1.0" encoding="utf-8"?>
<!-- Generator: Adobe Illustrator 16.0.3, SVG Export Plug-In . SVG Version: 6.00 Build 0)  -->
<!DOCTYPE svg PUBLIC "-//W3C//DTD SVG 1.1//EN" "http://www.w3.org/Graphics/SVG/1.1/DTD/svg11.dtd">
<svg version="1.1" id="Layer_1" xmlns="http://www.w3.org/2000/svg" xmlns:xlink="http://www.w3.org/1999/xlink" x="0px" y="0px"
	 width="200px" height="400px" viewBox="0 0 200 400" enable-background="new 0 0 200 400" xml:space="preserve">
<path d="M100,0C44.771,0,0,44.772,0,100.001c0,45.14,29.911,83.288,70.993,95.722c-31.937-11.799-54.707-42.514-54.707-78.55
	c0-46.234,37.48-83.715,83.713-83.715c46.234,0,83.713,37.48,83.713,83.715c0,36.036-22.771,66.751-54.706,78.55
	C170.089,183.289,200,145.141,200,100.001C200,44.772,155.229,0,100,0z"/>
<path d="M100.001,400C155.229,400,200,355.229,200,300c0-45.141-29.911-83.289-70.993-95.724
	c31.938,11.8,54.707,42.516,54.707,78.55c0,46.235-37.479,83.716-83.713,83.716c-46.235,0-83.715-37.48-83.715-83.716
	c0-36.034,22.771-66.75,54.708-78.55C29.911,216.711,0,254.859,0,300C0,355.229,44.771,400,100.001,400z"/>
</svg>
